%
M48
M72
T01C0.0118
T02C0.0236
T03C0.0276
T04C0.0360
T05C0.0433
%
T01
X4620Y910
X4620Y1410
X16015Y14905
X17260Y13400
X17510Y14900
X19300Y14930
X21010Y15400
X21860Y14930
X21010Y13650
X23510Y11400
X24010Y12150
X25010Y11150
X25510Y11650
X25760Y11400
X26260Y11900
X26510Y12150
X26760Y12400
X27260Y12650
X27510Y12900
X27760Y13650
X25490Y13810
X25490Y14500
X24610Y14930
X25490Y16580
X25490Y18560
X25490Y20710
X26010Y22400
X26010Y24150
X25760Y24400
X25010Y24900
X24510Y25150
X24010Y25150
X23760Y24900
X23510Y24650
X23260Y24400
X23100Y23930
X23240Y22380
X24260Y22380
X22260Y21150
X21660Y22380
X20280Y22380
X18910Y24010
X19260Y24650
X19010Y24900
X19010Y25650
X19010Y26400
X19260Y26650
X19510Y26400
X19760Y26650
X20010Y26400
X20260Y26650
X20510Y26400
X20760Y26650
X21010Y26400
X21260Y26650
X21510Y26400
X21760Y26650
X23120Y26910
X23120Y27410
X23120Y27910
X24520Y28540
X24760Y28030
X25260Y27520
X25760Y27010
X26260Y26750
X26760Y27260
X27510Y27780
X27260Y28290
X25260Y29400
X25510Y30150
X26010Y30650
X26010Y31120
X26510Y30760
X26510Y31650
X27260Y32150
X27010Y32650
X26510Y33150
X26260Y32900
X25260Y32400
X25510Y31900
X24760Y31150
X25010Y30890
X25260Y33400
X24510Y33650
X24260Y33900
X22760Y34400
X21260Y30650
X21760Y30400
X21510Y30150
X21010Y28900
X20010Y28400
X19510Y28400
X19510Y28920
X19260Y30150
X20510Y30900
X19760Y31650
X17760Y28400
X16260Y28400
X16260Y30400
X16260Y32400
X16260Y32900
X16510Y34900
X8510Y34900
X16260Y24010
X16760Y23400
X17760Y23150
X17260Y24400
X15510Y22650
X16510Y21650
X15885Y20025
X15760Y18650
X16070Y17780
X16270Y17550
X16260Y17030
X16760Y16900
X18070Y16980
X18070Y18740
X18070Y19930
X22010Y19150
X20200Y24460
X19650Y24640
X13010Y22650
X12010Y16080
X10390Y16080
X23520Y10120
X23520Y9180
X23520Y8230
X23520Y7280
X23520Y6650
X27000Y6650
X27000Y7280
X27000Y8220
X27000Y9160
X27000Y10120
X27000Y10750
X30690Y4880
X29510Y3150
X26980Y2560
X24020Y1060
X23510Y2150
X34870Y910
X35370Y910
X35370Y1410
X35010Y8400
X29820Y18250
X29840Y19790
X29760Y20150
X28950Y20550
X30010Y21150
X31290Y20300
X31760Y20900
X31510Y21150
X32260Y20900
X33010Y19900
X31280Y22480
X29000Y26500
X29830Y28810
X30260Y29650
X29000Y30500
X28030Y32040
X29510Y33150
X29830Y32810
X30260Y33400
X31760Y33400
X32020Y32550
X31760Y29650
X32040Y28550
X35370Y34660
X35370Y35160
X34870Y35160
T02
X23300Y31870
X9260Y15650
X8260Y14150
X8260Y13650
X8760Y13650
X8760Y13150
X8260Y13150
X9260Y11150
X9760Y11150
X10260Y11150
X10260Y11650
X10760Y11150
X11260Y11150
X11260Y10650
X11260Y10150
X11260Y9650
X10760Y9650
X10260Y9650
X9760Y9650
X9260Y9650
X9260Y10150
X9260Y10650
X9760Y7650
X10260Y7650
X10760Y7650
X11760Y13150
X11760Y13650
X11760Y14150
X11760Y14650
X12260Y14650
X12260Y14150
X12260Y13650
X12260Y13150
T03
X28010Y23150
X28010Y25150
X28980Y25250
X31020Y25250
X31510Y24650
T04
X33510Y24650
X33510Y23650
X33510Y22650
X34510Y22650
X34510Y23650
X34510Y24650
X34510Y25650
X34510Y26650
X34510Y27650
X34510Y28650
X34510Y29650
X34510Y30650
X34510Y31650
X34510Y32650
X34510Y33650
X33510Y33650
X33510Y32650
X33510Y31650
X33510Y30650
X33510Y29650
X33510Y28650
X33510Y27650
X33510Y26650
X33510Y25650
X33510Y21650
X33510Y20650
X33510Y19650
X34510Y19650
X34510Y20650
X34510Y21650
X34510Y18650
X34510Y17650
X34510Y16650
X34510Y15650
X34510Y14650
X33510Y14650
X33510Y15650
X33510Y16650
X33510Y17650
X33510Y18650
X35010Y11900
X35010Y10900
X16260Y26150
X16260Y27150
X14010Y34900
X13010Y34900
X12010Y34900
X11010Y34900
X6510Y34900
X5510Y34900
X25760Y34900
X25760Y33900
X26760Y33900
X27760Y33900
X27760Y34900
X26760Y34900
X28760Y34900
X28760Y33900
X29760Y33900
X29760Y34900
T05
X15260Y33150
X15260Y32150
X15260Y31150
X15260Y30150
X15260Y29150
X15260Y28150
X15260Y27150
X15260Y26150
X15260Y25150
X15260Y24150
X15260Y23150
X15260Y22150
X15260Y21150
X15260Y20150
X15260Y19150
X15260Y18150
X15260Y17150
X15260Y16150
X15260Y15150
X15260Y14150
X15260Y13150
X15260Y12150
X15260Y11150
X15260Y10150
X15260Y9150
X15260Y8150
X15260Y7150
X15260Y6150
X15260Y5150
X15260Y4150
X15260Y3150
X15260Y2150
X14260Y2150
X14260Y1150
X14260Y3150
X14260Y4150
X14260Y5150
X14260Y6150
X14260Y7150
X14260Y8150
X14260Y9150
X14260Y10150
X14260Y11150
X14260Y12150
X14260Y13150
X14260Y14150
X14260Y15150
X14260Y16150
X14260Y17150
X14260Y18150
X14260Y19150
X14260Y20150
X14260Y21150
X14260Y22150
X14260Y23150
X14260Y24150
X14260Y25150
X14260Y26150
X14260Y27150
X14260Y28150
X14260Y29150
X14260Y30150
X14260Y31150
X14260Y32150
X6260Y32150
X6260Y31150
X5260Y31150
X5260Y32150
X6260Y33150
X6260Y30150
X6260Y29150
X6260Y28150
X6260Y27150
X5260Y27150
X5260Y28150
X5260Y29150
X5260Y30150
X5260Y26150
X6260Y26150
X6260Y25150
X6260Y24150
X6260Y23150
X5260Y23150
X5260Y24150
X5260Y25150
X5260Y22150
X6260Y22150
X6260Y21150
X6260Y20150
X6260Y19150
X5260Y19150
X5260Y20150
X5260Y21150
X5260Y18150
X6260Y18150
X6260Y17150
X6260Y16150
X6260Y15150
X5260Y15150
X5260Y16150
X5260Y17150
X5260Y14150
X6260Y14150
X6260Y13150
X6260Y12150
X6260Y11150
X5260Y11150
X5260Y12150
X5260Y13150
X5260Y10150
X6260Y10150
X6260Y9150
X6260Y8150
X6260Y7150
X5260Y7150
X5260Y8150
X5260Y9150
X5260Y6150
X6260Y6150
X6260Y5150
X6260Y4150
X6260Y3150
X5260Y3150
X5260Y4150
X5260Y5150
X5260Y2150
X6260Y2150
X5260Y1150
M30
