G75*
%MOIN*%
%OFA0B0*%
%FSLAX24Y24*%
%IPPOS*%
%LPD*%
%AMOC8*
5,1,8,0,0,1.08239X$1,22.5*
%
%ADD10R,0.0591X0.0106*%
%ADD11R,0.0106X0.0591*%
%ADD12R,0.0295X0.0118*%
%ADD13R,0.0594X0.0180*%
%ADD14R,0.0280X0.0701*%
%ADD15R,0.0701X0.0280*%
%ADD16R,0.0787X0.0709*%
%ADD17R,0.0425X0.0413*%
%ADD18R,0.0630X0.0512*%
%ADD19R,0.0413X0.0425*%
%ADD20R,0.0394X0.0433*%
%ADD21R,0.0433X0.0394*%
%ADD22R,0.1260X0.0709*%
%ADD23R,0.0197X0.0256*%
%ADD24R,0.0591X0.0787*%
%ADD25R,0.1496X0.0787*%
%ADD26R,0.0630X0.0460*%
D10*
X017527Y015205D03*
X017527Y015402D03*
X017527Y015599D03*
X017527Y015796D03*
X017527Y015993D03*
X017527Y016189D03*
X017527Y016386D03*
X017527Y016583D03*
X017527Y016780D03*
X017527Y016977D03*
X017527Y017174D03*
X017527Y017370D03*
X017527Y017567D03*
X017527Y017764D03*
X017527Y017961D03*
X017527Y018158D03*
X017527Y018355D03*
X017527Y018552D03*
X017527Y018748D03*
X017527Y018945D03*
X017527Y019142D03*
X017527Y019339D03*
X017527Y019536D03*
X017527Y019733D03*
X017527Y019930D03*
X017527Y020126D03*
X017527Y020323D03*
X017527Y020520D03*
X017527Y020717D03*
X017527Y020914D03*
X017527Y021111D03*
X017527Y021307D03*
X017527Y021504D03*
X017527Y021701D03*
X017527Y021898D03*
X017527Y022095D03*
X025992Y022095D03*
X025992Y021898D03*
X025992Y021701D03*
X025992Y021504D03*
X025992Y021307D03*
X025992Y021111D03*
X025992Y020914D03*
X025992Y020717D03*
X025992Y020520D03*
X025992Y020323D03*
X025992Y020126D03*
X025992Y019930D03*
X025992Y019733D03*
X025992Y019536D03*
X025992Y019339D03*
X025992Y019142D03*
X025992Y018945D03*
X025992Y018748D03*
X025992Y018552D03*
X025992Y018355D03*
X025992Y018158D03*
X025992Y017961D03*
X025992Y017764D03*
X025992Y017567D03*
X025992Y017370D03*
X025992Y017174D03*
X025992Y016977D03*
X025992Y016780D03*
X025992Y016583D03*
X025992Y016386D03*
X025992Y016189D03*
X025992Y015993D03*
X025992Y015796D03*
X025992Y015599D03*
X025992Y015402D03*
X025992Y015205D03*
D11*
X025204Y014418D03*
X025008Y014418D03*
X024811Y014418D03*
X024614Y014418D03*
X024417Y014418D03*
X024220Y014418D03*
X024023Y014418D03*
X023826Y014418D03*
X023630Y014418D03*
X023433Y014418D03*
X023236Y014418D03*
X023039Y014418D03*
X022842Y014418D03*
X022645Y014418D03*
X022448Y014418D03*
X022252Y014418D03*
X022055Y014418D03*
X021858Y014418D03*
X021661Y014418D03*
X021464Y014418D03*
X021267Y014418D03*
X021071Y014418D03*
X020874Y014418D03*
X020677Y014418D03*
X020480Y014418D03*
X020283Y014418D03*
X020086Y014418D03*
X019889Y014418D03*
X019693Y014418D03*
X019496Y014418D03*
X019299Y014418D03*
X019102Y014418D03*
X018905Y014418D03*
X018708Y014418D03*
X018511Y014418D03*
X018315Y014418D03*
X018315Y022882D03*
X018511Y022882D03*
X018708Y022882D03*
X018905Y022882D03*
X019102Y022882D03*
X019299Y022882D03*
X019496Y022882D03*
X019693Y022882D03*
X019889Y022882D03*
X020086Y022882D03*
X020283Y022882D03*
X020480Y022882D03*
X020677Y022882D03*
X020874Y022882D03*
X021071Y022882D03*
X021267Y022882D03*
X021464Y022882D03*
X021661Y022882D03*
X021858Y022882D03*
X022055Y022882D03*
X022252Y022882D03*
X022448Y022882D03*
X022645Y022882D03*
X022842Y022882D03*
X023039Y022882D03*
X023236Y022882D03*
X023433Y022882D03*
X023630Y022882D03*
X023826Y022882D03*
X024023Y022882D03*
X024220Y022882D03*
X024417Y022882D03*
X024614Y022882D03*
X024811Y022882D03*
X025008Y022882D03*
X025204Y022882D03*
D12*
X029328Y020552D03*
X029328Y020296D03*
X029328Y020040D03*
X029328Y019784D03*
X029328Y019528D03*
X029328Y019272D03*
X029328Y019016D03*
X029328Y018760D03*
X029328Y018504D03*
X029328Y018248D03*
X031691Y018248D03*
X031691Y018504D03*
X031691Y018760D03*
X031691Y019016D03*
X031691Y019272D03*
X031691Y019528D03*
X031691Y019784D03*
X031691Y020040D03*
X031691Y020296D03*
X031691Y020552D03*
X031691Y026498D03*
X031691Y026754D03*
X031691Y027010D03*
X031691Y027266D03*
X031691Y027522D03*
X031691Y027778D03*
X031691Y028034D03*
X031691Y028290D03*
X031691Y028546D03*
X031691Y028802D03*
X031691Y030498D03*
X031691Y030754D03*
X031691Y031010D03*
X031691Y031266D03*
X031691Y031522D03*
X031691Y031778D03*
X031691Y032034D03*
X031691Y032290D03*
X031691Y032546D03*
X031691Y032802D03*
X029328Y032802D03*
X029328Y032546D03*
X029328Y032290D03*
X029328Y032034D03*
X029328Y031778D03*
X029328Y031522D03*
X029328Y031266D03*
X029328Y031010D03*
X029328Y030754D03*
X029328Y030498D03*
X029328Y028802D03*
X029328Y028546D03*
X029328Y028290D03*
X029328Y028034D03*
X029328Y027778D03*
X029328Y027522D03*
X029328Y027266D03*
X029328Y027010D03*
X029328Y026754D03*
X029328Y026498D03*
D13*
X027504Y010744D03*
X027504Y010430D03*
X027504Y010115D03*
X027504Y009800D03*
X027504Y009485D03*
X027504Y009170D03*
X027504Y008855D03*
X027504Y008540D03*
X027504Y008225D03*
X027504Y007910D03*
X027504Y007595D03*
X027504Y007280D03*
X027504Y006965D03*
X027504Y006650D03*
X027504Y006335D03*
X027504Y006020D03*
X027504Y005705D03*
X027504Y005390D03*
X027504Y005075D03*
X027504Y004760D03*
X027504Y004445D03*
X027504Y004130D03*
X027504Y003815D03*
X027504Y003500D03*
X027504Y003185D03*
X027504Y002870D03*
X027504Y002556D03*
X023015Y002556D03*
X023015Y002870D03*
X023015Y003185D03*
X023015Y003500D03*
X023015Y003815D03*
X023015Y004130D03*
X023015Y004445D03*
X023015Y004760D03*
X023015Y005075D03*
X023015Y005390D03*
X023015Y005705D03*
X023015Y006020D03*
X023015Y006335D03*
X023015Y006650D03*
X023015Y006965D03*
X023015Y007280D03*
X023015Y007595D03*
X023015Y007910D03*
X023015Y008225D03*
X023015Y008540D03*
X023015Y008855D03*
X023015Y009170D03*
X023015Y009485D03*
X023015Y009800D03*
X023015Y010115D03*
X023015Y010430D03*
X023015Y010744D03*
D14*
X023260Y029479D03*
X022760Y029479D03*
X022260Y029479D03*
X021760Y029479D03*
X021260Y029479D03*
X020760Y029479D03*
X020260Y029479D03*
X019760Y029479D03*
X019260Y029479D03*
X019260Y033821D03*
X019760Y033821D03*
X020260Y033821D03*
X020760Y033821D03*
X021260Y033821D03*
X021760Y033821D03*
X022260Y033821D03*
X022760Y033821D03*
X023260Y033821D03*
D15*
X023931Y033150D03*
X023931Y032650D03*
X023931Y032150D03*
X023931Y031650D03*
X023931Y031150D03*
X023931Y030650D03*
X023931Y030150D03*
X018588Y030150D03*
X018588Y030650D03*
X018588Y031150D03*
X018588Y031650D03*
X018588Y032150D03*
X018588Y032650D03*
X018588Y033150D03*
D16*
X031433Y005150D03*
X031433Y003150D03*
X033086Y003150D03*
X033086Y005150D03*
D17*
X030760Y004494D03*
X030760Y003806D03*
X028260Y006596D03*
X028260Y007284D03*
X023510Y011806D03*
X023510Y012494D03*
X026260Y013806D03*
X026260Y014494D03*
X022220Y007314D03*
X022220Y006626D03*
X023510Y001744D03*
X023510Y001056D03*
X017260Y013806D03*
X017260Y014494D03*
X013510Y014806D03*
X013510Y015494D03*
X007260Y015306D03*
X007260Y015994D03*
X017260Y023306D03*
X017260Y023994D03*
X016760Y032306D03*
X016760Y032994D03*
X026010Y023744D03*
X026010Y023056D03*
D18*
X010260Y008256D03*
X010260Y009044D03*
X009260Y014256D03*
X009260Y015044D03*
X028010Y023756D03*
X028010Y024544D03*
X031510Y024044D03*
X031510Y023256D03*
D19*
X031104Y021150D03*
X030415Y021150D03*
X030665Y029650D03*
X031354Y029650D03*
X031354Y033400D03*
X030665Y033400D03*
X011104Y013650D03*
X010415Y013650D03*
D20*
X010895Y016080D03*
X011564Y016080D03*
X009844Y034900D03*
X009175Y034900D03*
X015175Y034900D03*
X015844Y034900D03*
X028245Y021200D03*
X028914Y021200D03*
X029925Y003150D03*
X030594Y003150D03*
D21*
X033760Y008315D03*
X033760Y008985D03*
X035010Y009065D03*
X035010Y009735D03*
X031760Y021815D03*
X031760Y022485D03*
X016260Y029315D03*
X016260Y029985D03*
D22*
X030010Y025252D03*
X030010Y023048D03*
D23*
X028982Y013416D03*
X028667Y013416D03*
X028352Y013416D03*
X028037Y013416D03*
X028037Y012884D03*
X028352Y012884D03*
X028667Y012884D03*
X028982Y012884D03*
X029287Y012416D03*
X029602Y012416D03*
X029917Y012416D03*
X030232Y012416D03*
X030232Y011884D03*
X029917Y011884D03*
X029602Y011884D03*
X029287Y011884D03*
X030537Y011416D03*
X030852Y011416D03*
X031167Y011416D03*
X031482Y011416D03*
X031482Y010884D03*
X031167Y010884D03*
X030852Y010884D03*
X030537Y010884D03*
X031787Y010416D03*
X032102Y010416D03*
X032417Y010416D03*
X032732Y010416D03*
X032732Y009884D03*
X032417Y009884D03*
X032102Y009884D03*
X031787Y009884D03*
X033037Y010884D03*
X033352Y010884D03*
X033667Y010884D03*
X033982Y010884D03*
X033982Y011416D03*
X033667Y011416D03*
X033352Y011416D03*
X033037Y011416D03*
X022482Y011416D03*
X022167Y011416D03*
X021852Y011416D03*
X021537Y011416D03*
X021537Y010884D03*
X021852Y010884D03*
X022167Y010884D03*
X022482Y010884D03*
X021232Y010416D03*
X020917Y010416D03*
X020602Y010416D03*
X020287Y010416D03*
X020287Y009884D03*
X020602Y009884D03*
X020917Y009884D03*
X021232Y009884D03*
X019982Y010884D03*
X019667Y010884D03*
X019352Y010884D03*
X019037Y010884D03*
X019037Y011416D03*
X019352Y011416D03*
X019667Y011416D03*
X019982Y011416D03*
X018732Y010416D03*
X018417Y010416D03*
X018102Y010416D03*
X017787Y010416D03*
X017787Y009884D03*
X018102Y009884D03*
X018417Y009884D03*
X018732Y009884D03*
X017482Y010884D03*
X017167Y010884D03*
X016852Y010884D03*
X016537Y010884D03*
X016537Y011416D03*
X016852Y011416D03*
X017167Y011416D03*
X017482Y011416D03*
X027777Y032824D03*
X028092Y032824D03*
X028407Y032824D03*
X028722Y032824D03*
X028722Y033356D03*
X028407Y033356D03*
X028092Y033356D03*
X027777Y033356D03*
D24*
X011165Y012890D03*
X010260Y012890D03*
X009354Y012890D03*
D25*
X010260Y010410D03*
D26*
X016260Y024600D03*
X016260Y025200D03*
M02*
